<svg xmlns="http://www.w3.org/2000/svg" viewBox="0 0 300 40" width="300" height="40"><style>tspan { white-space:pre }.shp0 { opacity: 0.937;fill: #ffffff } </style><path fill-rule="evenodd" class="shp0" d="M59.18 2C59.71 3.38 60.51 9.22 60.95 15C61.39 20.78 62.49 27.3 63.41 29.5C64.32 31.7 65.84 34.07 66.78 34.77C68.18 35.8 68.22 36.04 67 36.06C66.17 36.08 64.83 35.3 64 34.34C63.17 33.38 61.99 31 60.24 25.5L58.62 28.75C57.44 31.12 56.32 32 54.5 32C52.94 32 51.06 30.87 49.5 29C48.13 27.35 46.73 24.99 46.4 23.75C46.07 22.51 46.29 20.49 46.9 19.25C47.5 18.01 49.13 16.32 50.5 15.5C52.72 14.17 53.28 14.17 55.5 15.5C56.88 16.32 58 17.68 58 18.5C58 19.32 57.55 20 57 20C56.45 20 56 19.32 56 18.5C56 17.68 55.33 16.77 54.5 16.5C53.67 16.23 52.1 16.45 51 17C49.9 17.55 48.73 19.01 48.4 20.25C48.08 21.49 48.53 23.96 49.4 25.75C50.28 27.54 51.9 29.45 53 30C54.62 30.81 55.27 30.57 56.4 28.75C57.16 27.51 58.12 25.38 58.51 24C58.91 22.63 58.66 17.45 57.95 12.5C57.24 7.55 57 2.6 57.43 1.5C58.16 -0.39 58.25 -0.37 59.18 2ZM0.95 4C1.64 4 2.31 6.34 2.61 9.75C2.88 12.91 3.31 16.51 3.55 17.75C3.93 19.63 4.65 20 8 20C11.71 20 12 19.8 11.96 17.25C11.93 15.74 11.52 12.48 11.04 10C10.56 7.52 10.36 5.28 10.59 5C10.81 4.72 11.22 4.72 11.48 5C11.75 5.28 12.42 8.2 12.97 11.5C13.52 14.8 14.2 20.09 14.49 23.25C14.77 26.41 15.23 30.13 15.5 31.5C15.77 32.88 15.66 34.01 15.25 34.02C14.84 34.04 14.16 32.57 13.74 30.77C13.32 28.97 12.98 26.26 12.99 24.75C13 22.16 12.75 22 4 22L4.32 27.25C4.49 30.14 4.94 33.29 5.32 34.25C5.78 35.44 5.52 36 4.5 36C3.38 36 2.87 34.41 2.48 29.75C2.19 26.31 1.75 20.8 1.5 17.5C1.25 14.2 0.76 9.81 0.42 7.75C-0.01 5.21 0.17 4 0.95 4ZM165.9 6C166.5 6 167.2 7.01 167.44 8.25C167.69 9.49 168.06 13.65 168.28 17.5C168.56 22.56 169.46 26.16 171.53 30.5C173.11 33.8 174.6 36.95 174.85 37.5C175.09 38.05 174.31 37.6 173.1 36.5C171.9 35.4 170.14 32.59 167.5 26.01L165.75 29C164.48 31.18 163.45 31.86 162 31.5C160.77 31.19 159.81 31.58 159.5 32.5C159.19 33.43 157.76 33.99 155.75 33.98C153.57 33.97 151.59 33.07 149.73 31.23C147.92 29.45 146.96 27.46 146.96 25.5C146.96 23.85 147.51 21.94 148.18 21.25C148.85 20.56 150.21 20 151.2 20C152.19 20 153.22 20.68 153.5 21.5C153.78 22.32 154.02 23.79 154.04 24.75C154.07 25.71 153.38 27.18 152.52 28C151.66 28.83 150.63 29.1 150.23 28.61C149.83 28.13 150.06 27.56 150.75 27.36C151.44 27.16 152 25.88 152 24.5C152 23.13 151.55 21.77 151 21.5C150.45 21.23 149.61 22.01 149.13 23.25C148.65 24.49 148.5 26.18 148.78 27C149.07 27.82 150.02 29.3 150.9 30.28C151.8 31.28 153.85 32.05 155.58 32.03C157.28 32.01 158.95 31.66 159.29 31.25C159.63 30.84 159.48 29.49 158.95 28.25C158.34 26.8 158.36 25.11 159 23.5C159.69 21.77 160.77 21 162.5 21C163.88 21 165 21.45 165 22C165 22.55 164.32 22.77 163.5 22.5C162.68 22.23 161.55 22.68 161 23.5C160.45 24.32 160.22 26.13 160.5 27.5C160.78 28.88 161.68 30 162.5 30C163.32 30 164.49 28.76 165.09 27.25C165.78 25.49 165.93 21.18 165.49 15.25C165 8.77 165.13 6 165.9 6ZM193.26 6.58C193.69 7.09 193.63 8.63 193.12 10C192.26 12.35 192.16 12.38 191.49 10.5C191.1 9.4 191.17 7.86 191.63 7.08C192.12 6.26 192.8 6.05 193.26 6.58ZM197.75 7C198.16 7 198.54 10.27 198.6 14.25C198.65 18.24 199.22 23.41 199.85 25.75C200.48 28.09 201.45 30 202 30C202.55 30 203.22 28.99 203.49 27.75C203.75 26.51 204.54 24.93 205.24 24.24C206.25 23.22 206.71 23.22 207.57 24.24C208.17 24.93 209.18 27.3 209.82 29.5C210.47 31.7 211.45 34.17 212.02 35C212.9 36.3 213.24 36.23 214.56 34.5C215.49 33.28 215.86 31.52 215.5 30C215.17 28.63 214.7 26.71 214.45 25.75C214.2 24.79 214.7 23.66 215.55 23.25C216.48 22.8 217.67 23.1 218.54 24C219.65 25.16 219.75 26.24 218.99 28.75C218.19 31.37 218.31 32.24 219.62 33.25C220.7 34.09 222.77 34.28 225.87 33.84C230.06 33.24 230.31 33.31 228.5 34.61C227.4 35.39 225.15 36.05 223.5 36.06C221.85 36.08 219.94 35.39 219.25 34.54C218.15 33.18 217.7 33.33 212.99 38.5L210.92 36C209.78 34.63 208.37 31.48 206.7 24.5L205.35 28.25C204.4 30.88 203.4 32 202 32C200.42 32 199.68 30.83 198.5 26.5C197.29 22.07 196.69 21.15 195.4 21.75C194.1 22.36 193.94 23.43 194.53 27.5C194.92 30.25 195.65 33.63 196.14 35C196.63 36.38 196.77 37.73 196.46 38C196.15 38.27 195.48 37.83 194.98 37C194.49 36.17 193.72 33.07 193.29 30.11C192.75 26.46 191.85 24.28 190.5 23.35C188.74 22.15 188.71 21.99 190.25 21.99C191.71 22 191.92 21.34 191.5 18C191.21 15.67 191.42 14 192 14C192.55 14 193 15.35 193 17C193 19.33 193.44 20 195 20C196.71 20 196.98 19.39 196.83 15.75C196.74 13.41 196.74 10.49 196.83 9.25C196.92 8.01 197.34 7 197.75 7ZM217 28.5C217.55 28.77 218.05 28.13 218.1 27.06C218.16 25.99 217.75 24.84 217.2 24.5C216.65 24.16 216.16 24.81 216.1 25.94C216.05 27.07 216.45 28.23 217 28.5ZM244.07 8C244.58 8 245 8.9 245 10C245 11.1 244.66 12 244.25 12C243.84 12 243.42 11.1 243.32 10C243.22 8.9 243.55 8 244.07 8ZM257.87 10C258.49 10 259.45 11.69 259.99 13.75C260.54 15.81 260.99 19.64 260.99 22.25C261 24.86 261.68 28.57 262.5 30.5C263.32 32.42 264.45 34 265 34C265.55 34 266 34.45 266 35C266 35.55 265.32 36 264.5 36C263.68 36 262.66 35.31 262.25 34.46C261.6 33.12 261.22 33.2 259.5 34.99C258.4 36.13 256.6 37.04 255.5 37.02C254.4 36.99 252.97 36.64 252.33 36.23C251.68 35.83 250.67 34.26 250.08 32.75C249.3 30.76 249.31 29.38 250.13 27.75C250.75 26.51 251.99 24.7 252.88 23.72C253.77 22.74 255.18 21.95 256 21.96C257.21 21.99 257.43 20.84 257.12 16C256.87 11.98 257.11 10 257.87 10ZM251.62 28.75C251.28 29.99 251.45 31.9 252 33C252.69 34.38 253.84 34.92 255.68 34.75C257.58 34.57 258.57 33.77 259.06 32C259.44 30.63 259.59 28.26 259.38 26.75C259.09 24.62 258.46 24 256.61 24C255.3 24 253.78 24.56 253.23 25.25C252.69 25.94 251.96 27.51 251.62 28.75ZM22.2 15C23.19 15 24.92 16.24 26.03 17.75C27.15 19.26 28.05 21.29 28.03 22.25C28.01 23.25 27.03 24.2 25.75 24.46C24.51 24.71 22.6 25.06 21.5 25.24C19.63 25.53 19.68 25.73 22.25 28.27C24.32 30.33 25.98 31 29 31C32.04 31 33.35 30.46 34.48 28.75C35.29 27.51 36.19 26.84 36.48 27.25C36.76 27.66 36.6 28.79 36.12 29.75C35.63 30.71 33.72 31.81 31.87 32.19C30.02 32.57 26.81 32.46 24.75 31.94C22.09 31.27 20.57 30.13 19.5 28C18.68 26.35 17.91 23.29 17.8 21.2C17.68 18.96 18.17 16.91 19 16.2C19.77 15.54 21.21 15 22.2 15ZM19.56 22.25C19.8 22.66 21.35 23 23 23C24.65 23 26 22.55 26 22C26 21.45 25.55 20.1 25 19C24.45 17.9 23.14 17 22.1 17C20.95 17 19.98 17.89 19.65 19.25C19.36 20.49 19.31 21.84 19.56 22.25ZM68.8 15C69.22 15 69.41 17.14 69.24 19.75C69.05 22.45 69.5 25.58 70.26 27C71.02 28.4 72.35 29.39 73.31 29.25C74.24 29.11 75 29.45 75 30C75 30.55 74.44 31.3 73.75 31.66C73.04 32.03 71.53 31.17 70.25 29.66C69.01 28.2 67.72 25.54 67.38 23.75C67.04 21.96 67.05 19.26 67.4 17.75C67.75 16.24 68.38 15 68.8 15ZM78.42 14.98C79.01 14.97 80.4 15.58 81.5 16.33C82.94 17.32 83.15 17.88 82.25 18.35C81.56 18.71 80.78 18.55 80.5 18C80.22 17.45 79.33 17 78.5 17C77.67 17 77 17.45 77 18C77 18.55 79.47 21.7 82.5 25C85.53 28.3 87.89 31.75 87.75 32.67C87.61 33.58 87.05 34.51 86.5 34.72C85.95 34.94 84.04 33.96 82.25 32.56C80.46 31.15 79 29.55 79 29C79 28.45 80.6 29.24 82.55 30.75C84.53 32.29 86.07 32.95 86.05 32.25C86.02 31.56 83.76 28.64 81.03 25.75C78.3 22.86 75.97 19.56 75.86 18.42C75.76 17.27 76.04 16.03 76.5 15.67C76.96 15.3 77.82 14.99 78.42 14.98ZM122.39 16.61C123 16.78 123.84 17.73 124.26 18.71C124.68 19.7 124.79 20.73 124.5 21C124.21 21.27 123.32 20.6 122.52 19.5C121.08 17.53 121.06 17.53 121.03 19.75C121.01 20.99 122.75 24.14 124.88 26.75C127.01 29.36 129.3 32.63 129.96 34C130.63 35.38 130.79 36.85 130.33 37.29C129.87 37.72 128.23 37.5 126.67 36.79C125.12 36.08 123.2 34.49 122.42 33.25C121.64 32.01 121.34 30.99 121.75 30.97C122.16 30.96 123.63 32.1 125 33.5C126.38 34.9 127.84 36.04 128.25 36.03C128.66 36.01 129 35.66 129.01 35.25C129.01 34.84 126.77 31.8 124.03 28.5C121.25 25.15 118.95 21.32 118.83 19.83C118.7 18.32 119.18 16.98 119.94 16.73C120.68 16.49 121.78 16.44 122.39 16.61ZM137.75 16.08C138.44 16.04 139.22 16.45 139.5 17C139.78 17.55 139.1 18 138 18C136.9 18 136 18.56 136 19.25C136 19.94 138.02 22.64 140.5 25.25C143.06 27.95 145.01 30.97 145.02 32.25C145.03 33.49 144.49 35.06 143.82 35.75C143.15 36.44 141.79 37 140.8 37C139.81 37 138.32 35.99 137.49 34.75C136.66 33.51 135.99 31.71 135.99 30.75C136 29.79 136.45 29 137 29C137.55 29 137.98 29.79 137.96 30.75C137.93 31.71 138.61 33.06 139.46 33.75C140.3 34.44 141.68 34.77 142.5 34.5C143.46 34.18 143.76 33.36 143.34 32.25C142.97 31.29 140.72 28.36 138.34 25.75C135.95 23.14 133.91 20.14 133.8 19.08C133.69 18.03 134.25 16.94 135.05 16.66C135.85 16.38 137.06 16.12 137.75 16.08ZM92 18C92.55 18 92.99 18.79 92.99 19.75C92.98 20.71 93.7 23.75 94.59 26.5C95.54 29.48 96.54 31.1 97.04 30.5C97.5 29.95 98.02 27.02 98.19 24C98.42 19.91 98.89 18.5 100 18.5C100.83 18.5 102.04 20.07 102.69 22C103.35 23.93 103.91 24.71 103.94 23.75C103.97 22.79 104.11 21.48 104.25 20.83C104.39 20.19 105.06 19.52 105.75 19.33C106.44 19.15 107.26 20.23 107.59 21.75C107.91 23.26 108.51 25.63 108.92 27C109.33 28.38 110.08 29.41 110.58 29.3C111.09 29.19 111.58 28.52 111.68 27.8C111.78 27.09 112.12 24.81 112.43 22.75C112.75 20.69 113.45 19.23 114 19.5C114.55 19.77 114.73 20.79 114.4 21.75C114.07 22.71 114.07 26.09 114.4 29.25C114.91 34.17 115.24 34.89 116.69 34.25C117.94 33.7 118.25 33.89 117.86 35C117.57 35.83 116.58 36.61 115.67 36.75C114.45 36.93 113.83 35.99 113.38 33.25C112.88 30.24 112.59 29.85 111.88 31.25C111.4 32.21 110.66 33.02 110.25 33.04C109.84 33.06 108.96 31.82 108.31 30.29C107.65 28.76 106.91 26.6 106.67 25.5C106.43 24.4 106.18 25.41 106.12 27.75C106.04 30.62 105.6 31.89 104.75 31.66C104.06 31.47 102.76 28.89 101.85 25.91C100.2 20.53 100.2 20.52 100.1 24.25C100.04 26.31 99.55 29.13 99 30.5C98.45 31.88 97.33 33 96.5 33C95.54 33 94.28 30.75 92.99 26.75C91.89 23.31 90.99 19.94 90.99 19.25C91 18.56 91.45 18 92 18ZM268.98 21C270.09 21 271.43 21.89 271.97 22.98C272.5 24.07 272.61 26.15 272.22 27.6C271.82 29.06 270.82 30.61 270 31.06C268.75 31.73 268.84 31.98 270.5 32.56C271.6 32.94 273.4 32.82 274.5 32.28C275.6 31.75 276.84 29.89 277.25 28.16C277.73 26.13 278.9 24.64 280.5 24C282.17 23.33 283.67 23.33 285 24C286.1 24.55 287 25.45 287 26C287 26.55 286.77 27 286.5 27C286.23 27 285.14 26.44 284.08 25.75C282.52 24.73 281.87 24.77 280.54 26C279.64 26.82 278.92 28.63 278.94 30C278.95 31.38 279.54 33.07 280.23 33.77C280.93 34.46 282.18 35.01 283 34.99C283.82 34.97 285.3 34.17 286.28 33.22C287.29 32.25 288.05 30.09 288.03 28.25C288.01 26.01 288.47 25 289.5 25C290.67 25 290.89 25.89 290.5 29C290.09 32.27 290.41 33.37 292.25 35C293.49 36.11 295.74 37.23 297.25 37.5C298.76 37.78 300 38.45 300 39C300 39.55 299.55 40 299 40C298.45 40 296.2 39.1 294 38C291.8 36.9 289.77 35.55 289.5 35C289.19 34.38 288.04 34.58 286.5 35.5C285.13 36.33 283.32 37 282.5 37C281.68 37 280.1 36.1 279 35C277.24 33.24 276.65 33.15 274.05 34.25C271.37 35.38 270.86 35.27 268.55 33C267.15 31.63 265.78 29.49 265.5 28.25C265.23 27.01 265.44 24.88 265.98 23.5C266.58 21.98 267.75 21 268.98 21ZM267.39 27.25C267.73 28.21 268.56 28.85 269.25 28.67C269.94 28.48 270.5 27.28 270.5 26C270.5 24.72 269.97 23.48 269.33 23.25C268.69 23.02 267.85 23.43 267.47 24.17C267.1 24.9 267.06 26.29 267.39 27.25ZM243.83 23C244.27 23 244.44 24.69 244.21 26.75C243.9 29.49 244.36 31.24 245.9 33.25C247.05 34.76 248 36.23 248 36.5C248 36.77 247.1 36.55 246 36C244.9 35.45 243.5 33.31 242.9 31.25C242.29 29.19 242.07 26.49 242.41 25.25C242.75 24.01 243.39 23 243.83 23Z" /></svg>